# xmcd
#
# Track frame offsets: 
#        150
#        14413
#        31284
#        50356
#        53452
#        61078
#        78758
#        86960
#        89213
#        98065
#        114397
#        116026
#        120094
#        121899
#        130304
#        131957
#        144828
#        161202
#        173112
#        184859
#        198883
#        212680
#        214853
#
# Disc length: 3021 seconds
#
# Revision: 0
# Processed by: cddbd v1.5.2PL0 Copyright (c) Steve Scherf et al.
# Submitted via: ExactAudioCopy v0.95b3
#
DISCID=3f0bcb17
DTITLE=Various Artist - OST - Almost Heaven
DYEAR=2005
DGENRE=Country
TTITLE0=54-46 Was My Number
TTITLE1=Jolene
TTITLE2=It's A Pity
TTITLE3=Sitting 1
TTITLE4=Wings Upon Your Horn
TTITLE5=All That You Had
TTITLE6=Sadly Lively 1
TTITLE7=Can You Play That Thing?
TTITLE8=Dark As A Dungeon
TTITLE9=Everyday Good
TTITLE10=You Sing With The Hotel Band
TTITLE11=Hill and Gully Ride
TTITLE12=Welcome To Helen Shooter
TTITLE13=I'll Never Get Out Of This World Alive
TTITLE14=Shervin Introduces Helen
TTITLE15=Country Roads
TTITLE16=Satta Massa Gana
TTITLE17=Lively Up 2
TTITLE18=Pallet On The Floor
TTITLE19=Lock Down
TTITLE20=Looking At Country
TTITLE21=You Sing A Song And You Feel Better
TTITLE22=Country Roads
EXTD=
EXTT0=
EXTT1=
EXTT2=
EXTT3=
EXTT4=
EXTT5=
EXTT6=
EXTT7=
EXTT8=
EXTT9=
EXTT10=
EXTT11=
EXTT12=
EXTT13=
EXTT14=
EXTT15=
EXTT16=
EXTT17=
EXTT18=
EXTT19=
EXTT20=
EXTT21=
EXTT22=
PLAYORDER=
